<svg width="191" height="131" viewBox="0 0 191 131" fill="none" xmlns="http://www.w3.org/2000/svg">
<g clip-path="url(#clip0_3071_14994)">
<path d="M40.332 16.253L0.5 42.6211L39.7343 100.663L79.5663 74.2951L40.332 16.253Z" fill="#E2E8F0"/>
<path d="M58.9876 71.5492L58.5332 74.3176L38.731 71.493L39.1854 68.7246L58.9876 71.5492Z" fill="#E0E0E0"/>
<path d="M49.0155 61.6699L51.8555 62.0774L48.7031 81.3717L45.863 80.9642L49.0155 61.6699Z" fill="#E0E0E0"/>
<path d="M30.7753 37.148C30.8037 37.1901 26.8099 39.8812 21.8611 43.159C16.9123 46.4368 12.8688 49.0611 12.8404 49.0189C12.812 48.9768 16.8022 46.2857 21.7581 43.0079C26.714 39.7301 30.7469 37.1058 30.7753 37.148Z" fill="white"/>
<path d="M45.4228 33.5086C45.4512 33.5508 38.8126 37.9949 30.5977 43.4333C22.3829 48.8717 15.6875 53.2455 15.6697 53.2034C15.652 53.1612 22.2764 48.7206 30.4948 43.2822C38.7132 37.8438 45.3944 33.4664 45.4228 33.5086Z" fill="white"/>
<path d="M48.3587 37.8543C48.3871 37.8965 41.7485 42.3406 33.5337 47.7755C25.3188 53.2103 18.6234 57.5912 18.6234 57.5491C18.6234 57.5069 25.2336 53.0663 33.4485 47.6244C41.6633 42.1825 48.3303 37.8121 48.3587 37.8543Z" fill="white"/>
<path d="M51.2946 42.2C51.323 42.2422 44.688 46.6828 36.4696 52.1212C28.2512 57.5595 21.5593 61.9334 21.5593 61.8948C21.5593 61.8561 28.1518 57.4085 36.356 51.9701C44.5602 46.5317 51.2662 42.1579 51.2946 42.2Z" fill="white"/>
<path d="M54.2341 46.5423C54.2625 46.5845 47.6239 51.0286 39.409 56.467C31.1942 61.9053 24.4988 66.2792 24.4775 66.2371C24.4562 66.1949 31.0877 61.7543 39.3061 56.3124C47.5245 50.8705 54.2057 46.5001 54.2341 46.5423Z" fill="white"/>
<path d="M156.953 21L123.5 43.145L156.45 91.8897L189.902 69.7447L156.953 21Z" fill="#E2E8F0"/>
<path d="M172.621 67.4476L172.241 69.7733L155.613 67.4019L155.993 65.0762L172.621 67.4476Z" fill="white"/>
<path d="M164.246 59.1528L166.632 59.4936L163.987 75.6963L161.602 75.3555L164.246 59.1528Z" fill="white"/>
<path d="M148.928 38.5584C148.956 38.6006 145.609 40.8666 141.452 43.6174C137.295 46.3682 133.897 48.5709 133.869 48.5358C133.84 48.5007 137.188 46.2277 141.349 43.4733C145.509 40.719 148.9 38.5092 148.928 38.5584Z" fill="white"/>
<path d="M161.233 35.5023C161.261 35.5445 155.687 39.2825 148.807 43.8496C141.927 48.4167 136.29 52.0844 136.261 52.0423C136.233 52.0001 141.803 48.2656 148.704 43.695C155.606 39.1244 161.204 35.4602 161.233 35.5023Z" fill="white"/>
<path d="M163.696 39.1522C163.725 39.1944 158.155 42.9289 151.271 47.496C144.387 52.0631 138.739 55.7238 138.711 55.6922C138.683 55.6606 144.253 51.912 151.154 47.3449C158.055 42.7778 163.664 39.1101 163.696 39.1522Z" fill="white"/>
<path d="M166.149 42.7992C166.178 42.8413 160.608 46.5793 153.706 51.1465C146.805 55.7136 141.189 59.3813 141.161 59.3391C141.132 59.297 146.702 55.5625 153.603 50.9919C160.505 46.4213 166.149 42.757 166.149 42.7992Z" fill="white"/>
<path d="M168.634 46.4491C168.663 46.4912 163.089 50.2257 156.191 54.7928C149.294 59.36 143.674 63.0312 143.645 62.989C143.617 62.9469 149.187 59.2089 156.071 54.6418C162.954 50.0747 168.602 46.4069 168.634 46.4491Z" fill="white"/>
<path d="M131.142 19.321L94.6415 0.00146484L65.8953 53.1893L102.396 72.5088L131.142 19.321Z" fill="#E2E8F0"/>
<path d="M96.1497 55.8699L93.8351 56.6533L87.9562 40.5736L90.2708 39.7866L96.1497 55.8699Z" fill="white"/>
<path d="M99.6997 44.3325L100.545 46.6407L84.4061 52.1071L83.5612 49.8025L99.6997 44.3325Z" fill="white"/>
<path d="M111.166 20.6046C111.138 20.6573 107.435 18.7531 102.898 16.3537C98.3614 13.9542 94.7048 11.9622 94.7332 11.906C94.7616 11.8498 98.4821 13.7574 103.001 16.1604C107.521 18.5634 111.195 20.5519 111.166 20.6046Z" fill="white"/>
<path d="M119.928 30.1708C119.896 30.227 113.772 27.037 106.243 23.0531C98.7129 19.0692 92.6316 15.809 92.66 15.7422C92.6884 15.6755 98.8158 18.876 106.345 22.8634C113.875 26.8509 119.956 30.1181 119.928 30.1708Z" fill="white"/>
<path d="M117.773 34.1549C117.745 34.2076 111.621 31.0176 104.091 27.0337C96.5615 23.0498 90.4802 19.7755 90.5086 19.7228C90.537 19.6701 96.6645 22.8566 104.194 26.844C111.724 30.8314 117.805 34.1022 117.773 34.1549Z" fill="white"/>
<path d="M115.622 38.1353C115.593 38.188 109.466 35.0016 101.94 31.0142C94.4137 27.0267 88.3289 23.756 88.3573 23.7033C88.3857 23.6506 94.5131 26.837 102.032 30.8245C109.551 34.8119 115.65 38.0827 115.622 38.1353Z" fill="white"/>
<path d="M113.47 42.1156C113.442 42.1683 107.315 38.9819 99.7884 34.998C92.2623 31.014 86.1775 27.7538 86.2059 27.6871C86.2343 27.6203 92.3617 30.8208 99.902 34.8047C107.442 38.7886 113.499 42.0629 113.47 42.1156Z" fill="white"/>
<path d="M75.3589 58.2695L62.8059 122.135L61.1622 130.497L144.969 130.089C148.728 130.072 152.069 126.766 153.272 121.854L168.133 61.5578C169.052 57.8304 167.046 53.9448 164.181 53.9448L79.3598 54.0432C77.489 54.0467 75.8488 55.7752 75.3589 58.2695Z" fill="#FB7185"/>
<g opacity="0.2">
<path d="M75.3589 58.2695L62.8059 122.135L61.1622 130.497L144.969 130.089C148.728 130.072 152.069 126.766 153.272 121.854L168.133 61.5578C169.052 57.8304 167.046 53.9448 164.181 53.9448L79.3598 54.0432C77.489 54.0467 75.8488 55.7752 75.3589 58.2695Z" fill="black"/>
</g>
<path d="M136.928 117.811L128.052 47.052C127.697 44.1536 125.354 41.9895 122.6 42L103.142 42.0633C102.419 42.0695 101.705 42.2224 101.044 42.5125C100.384 42.8025 99.7903 43.2236 99.3005 43.7496L90.0704 53.467L35.9603 53.748C32.6517 53.748 30.1098 56.8607 30.55 60.3387L38.7826 125.736C39.1376 128.631 41.4736 130.792 44.2249 130.788L138.532 130.602C149.037 130.82 150.038 127.749 150.038 127.749C138.003 130.388 136.931 117.818 136.928 117.811Z" fill="#FB7185"/>
<g opacity="0.5">
<path d="M96.2653 103.649L93.0844 107.029L68.589 85.2225L71.7698 81.8394L96.2653 103.649Z" fill="#FFF1F2"/>
<path d="M91.7496 81.0908L95.2677 84.221L73.1011 107.777L69.5865 104.65L91.7496 81.0908Z" fill="#FFF1F2"/>
</g>
</g>
<defs>
<clipPath id="clip0_3071_14994">
<rect width="190" height="131" fill="white" transform="translate(0.5)"/>
</clipPath>
</defs>
</svg>
