<svg width="16" height="16" viewBox="0 0 16 16" fill="none" xmlns="http://www.w3.org/2000/svg">
<g clip-path="url(#clip0_1153_12016)">
<path d="M0 0H16V16H0V0Z" fill="#209C3A"/>
<path d="M0 0H16V6.4H0V0Z" fill="#008EB7"/>
<path d="M0 5.37598H16V10.624H0V5.37598Z" fill="white"/>
<path d="M0 5.50391H16V10.4959H0V5.50391Z" fill="#DA251D"/>
<path d="M0 5.82422H16V10.1762H0V5.82422Z" fill="#F7BD29"/>
<path d="M4.72039 4.09579C5.44941 4.09579 6.04039 3.4654 6.04039 2.68779C6.04039 1.91017 5.44941 1.27979 4.72039 1.27979C3.99137 1.27979 3.40039 1.91017 3.40039 2.68779C3.40039 3.4654 3.99137 4.09579 4.72039 4.09579Z" fill="white"/>
<path d="M5.19957 3.90417C5.82918 3.90417 6.33957 3.35975 6.33957 2.68817C6.33957 2.01659 5.82918 1.47217 5.19957 1.47217C4.56997 1.47217 4.05957 2.01659 4.05957 2.68817C4.05957 3.35975 4.56997 3.90417 5.19957 3.90417Z" fill="#008EB7"/>
<path d="M6.04004 3.38022H7.18131L6.258 4.09576L6.61067 2.93799L6.96334 4.09576L6.04004 3.38022Z" fill="white"/>
<path d="M6.6543 2.61801H7.79556L6.87226 3.33355L7.22493 2.17578L7.5776 3.33355L6.6543 2.61801Z" fill="white"/>
<path d="M7.26855 3.38022H8.40982L7.48652 4.09576L7.83919 2.93799L8.19186 4.09576L7.26855 3.38022Z" fill="white"/>
<path d="M7.88379 2.61801H9.02506L8.10175 3.33355L8.45442 2.17578L8.80709 3.33355L7.88379 2.61801Z" fill="white"/>
<path d="M8.49805 3.38022H9.63931L8.71601 4.09576L9.06868 2.93799L9.42135 4.09576L8.49805 3.38022Z" fill="white"/>
</g>
<defs>
<clipPath id="clip0_1153_12016">
<rect width="16" height="16" rx="8" fill="white"/>
</clipPath>
</defs>
</svg>
