<svg width="16" height="16" viewBox="0 0 16 16" fill="none" xmlns="http://www.w3.org/2000/svg">
<g clip-path="url(#clip0_1153_11547)">
<path d="M0 0H16V16H0V0Z" fill="#1EB53A"/>
<path d="M0 0H16V8H0V0Z" fill="#0099B5"/>
<path d="M0 5.12012H16V10.8801H0V5.12012Z" fill="#CE1126"/>
<path d="M0 5.43994H16V10.5599H0V5.43994Z" fill="white"/>
<path d="M4.42 4.34C5.20424 4.34 5.84 3.70424 5.84 2.92C5.84 2.13576 5.20424 1.5 4.42 1.5C3.63576 1.5 3 2.13576 3 2.92C3 3.70424 3.63576 4.34 4.42 4.34Z" fill="white"/>
<path d="M4.77461 4.34C5.49258 4.34 6.07461 3.70424 6.07461 2.92C6.07461 2.13576 5.49258 1.5 4.77461 1.5C4.05664 1.5 3.47461 2.13576 3.47461 2.92C3.47461 3.70424 4.05664 4.34 4.77461 4.34Z" fill="#0099B5"/>
<path d="M7.20605 3.52441L7.13173 3.75317L7.24611 3.79033" fill="white"/>
<path d="M7.20605 3.52441L7.28038 3.75317L7.166 3.79033" fill="white"/>
<path d="M7.43457 3.69092H7.19404V3.81118" fill="white"/>
<path d="M7.43457 3.69092L7.23998 3.8323L7.16929 3.735" fill="white"/>
<path d="M6.97852 3.69043L7.17311 3.83181L7.2438 3.73451" fill="white"/>
<path d="M6.97852 3.69043H7.21904V3.81069" fill="white"/>
<path d="M7.34766 3.95898L7.27333 3.73023L7.15895 3.76739" fill="white"/>
<path d="M7.34766 3.95898L7.15306 3.8176L7.22375 3.72031" fill="white"/>
<path d="M7.06445 3.9585L7.25905 3.81712L7.18836 3.71982" fill="white"/>
<path d="M7.06445 3.9585L7.13878 3.72974L7.25316 3.7669" fill="white"/>
<path d="M7.20605 2.5625L7.13173 2.79126L7.24611 2.82842" fill="white"/>
<path d="M7.20605 2.5625L7.28038 2.79126L7.166 2.82842" fill="white"/>
<path d="M7.43457 2.72852H7.19404V2.84878" fill="white"/>
<path d="M7.43457 2.72852L7.23998 2.8699L7.16929 2.7726" fill="white"/>
<path d="M6.97754 2.72852L7.17213 2.8699L7.24282 2.7726" fill="white"/>
<path d="M6.97754 2.72852H7.21807V2.84878" fill="white"/>
<path d="M7.34863 2.99805L7.27431 2.76929L7.15993 2.80645" fill="white"/>
<path d="M7.34863 2.99805L7.15404 2.85667L7.22473 2.75937" fill="white"/>
<path d="M7.06543 2.99756L7.26002 2.85618L7.18933 2.75888" fill="white"/>
<path d="M7.06543 2.99756L7.13976 2.7688L7.25414 2.80597" fill="white"/>
<path d="M7.20605 1.6001L7.13173 1.82885L7.24611 1.86602" fill="white"/>
<path d="M7.20605 1.6001L7.28038 1.82885L7.166 1.86602" fill="white"/>
<path d="M7.43457 1.7666H7.19404V1.88687" fill="white"/>
<path d="M7.43457 1.7666L7.23998 1.90798L7.16929 1.81068" fill="white"/>
<path d="M6.97852 1.76611L7.17311 1.90749L7.2438 1.8102" fill="white"/>
<path d="M6.97852 1.76611H7.21904V1.88638" fill="white"/>
<path d="M7.34766 2.03564L7.27333 1.80689L7.15895 1.84405" fill="white"/>
<path d="M7.34766 2.03564L7.15306 1.89426L7.22375 1.79697" fill="white"/>
<path d="M7.06445 2.03467L7.25905 1.89329L7.18836 1.79599" fill="white"/>
<path d="M7.06445 2.03467L7.13878 1.80591L7.25316 1.84307" fill="white"/>
<path d="M8.16895 3.52393L8.09462 3.75268L8.209 3.78985" fill="white"/>
<path d="M8.16895 3.52393L8.24327 3.75268L8.12889 3.78985" fill="white"/>
<path d="M8.39844 3.69043H8.15791V3.81069" fill="white"/>
<path d="M8.39844 3.69043L8.20385 3.83181L8.13316 3.73451" fill="white"/>
<path d="M7.94141 3.68994L8.136 3.83132L8.20669 3.73402" fill="white"/>
<path d="M7.94141 3.68994H8.18194V3.81021" fill="white"/>
<path d="M8.31152 3.95898L8.2372 3.73023L8.12282 3.76739" fill="white"/>
<path d="M8.31152 3.95898L8.11693 3.8176L8.18762 3.72031" fill="white"/>
<path d="M8.02734 3.9585L8.22194 3.81712L8.15125 3.71982" fill="white"/>
<path d="M8.02734 3.9585L8.10167 3.72974L8.21605 3.7669" fill="white"/>
<path d="M8.16895 2.5625L8.09462 2.79126L8.209 2.82842" fill="white"/>
<path d="M8.16895 2.5625L8.24327 2.79126L8.12889 2.82842" fill="white"/>
<path d="M8.39844 2.72852H8.15791V2.84878" fill="white"/>
<path d="M8.39844 2.72852L8.20385 2.8699L8.13316 2.7726" fill="white"/>
<path d="M7.94043 2.729L8.13502 2.87038L8.20571 2.77309" fill="white"/>
<path d="M7.94043 2.729H8.18096V2.84927" fill="white"/>
<path d="M8.31152 2.99707L8.2372 2.76831L8.12282 2.80548" fill="white"/>
<path d="M8.31152 2.99707L8.11693 2.85569L8.18762 2.75839" fill="white"/>
<path d="M8.0293 2.99658L8.22389 2.8552L8.1532 2.75791" fill="white"/>
<path d="M8.0293 2.99658L8.10362 2.76783L8.218 2.80499" fill="white"/>
<path d="M8.16895 1.6001L8.09462 1.82885L8.209 1.86602" fill="white"/>
<path d="M8.16895 1.6001L8.24327 1.82885L8.12889 1.86602" fill="white"/>
<path d="M8.39844 1.76611H8.15791V1.88638" fill="white"/>
<path d="M8.39844 1.76611L8.20385 1.90749L8.13316 1.8102" fill="white"/>
<path d="M7.94043 1.76611L8.13502 1.90749L8.20571 1.8102" fill="white"/>
<path d="M7.94043 1.76611H8.18096V1.88638" fill="white"/>
<path d="M8.31055 2.03564L8.23622 1.80689L8.12184 1.84405" fill="white"/>
<path d="M8.31055 2.03564L8.11595 1.89426L8.18664 1.79697" fill="white"/>
<path d="M8.02734 2.03467L8.22194 1.89329L8.15125 1.79599" fill="white"/>
<path d="M8.02734 2.03467L8.10167 1.80591L8.21605 1.84307" fill="white"/>
<path d="M9.12891 3.52393L9.05458 3.75268L9.16896 3.78985" fill="white"/>
<path d="M9.12891 3.52393L9.20323 3.75268L9.08886 3.78985" fill="white"/>
<path d="M9.35742 3.69043H9.11689V3.81069" fill="white"/>
<path d="M9.35742 3.69043L9.16283 3.83181L9.09214 3.73451" fill="white"/>
<path d="M8.90039 3.68994L9.09498 3.83132L9.16567 3.73402" fill="white"/>
<path d="M8.90039 3.68994H9.14092V3.81021" fill="white"/>
<path d="M9.26953 3.95947L9.1952 3.73072L9.08083 3.76788" fill="white"/>
<path d="M9.26953 3.95947L9.07494 3.81809L9.14563 3.7208" fill="white"/>
<path d="M8.9873 3.95947L9.1819 3.81809L9.11121 3.7208" fill="white"/>
<path d="M8.9873 3.95947L9.06163 3.73072L9.17601 3.76788" fill="white"/>
<path d="M9.12891 2.5625L9.05458 2.79126L9.16896 2.82842" fill="white"/>
<path d="M9.12891 2.5625L9.20323 2.79126L9.08886 2.82842" fill="white"/>
<path d="M9.35742 2.72852H9.11689V2.84878" fill="white"/>
<path d="M9.35742 2.72852L9.16283 2.8699L9.09214 2.7726" fill="white"/>
<path d="M8.89941 2.72852L9.09401 2.8699L9.1647 2.7726" fill="white"/>
<path d="M8.89941 2.72852H9.13994V2.84878" fill="white"/>
<path d="M9.26953 2.99658L9.1952 2.76783L9.08083 2.80499" fill="white"/>
<path d="M9.26953 2.99658L9.07494 2.8552L9.14563 2.75791" fill="white"/>
<path d="M8.9873 2.99707L9.1819 2.85569L9.11121 2.75839" fill="white"/>
<path d="M8.9873 2.99707L9.06163 2.76831L9.17601 2.80548" fill="white"/>
<path d="M9.12988 1.6001L9.05556 1.82885L9.16993 1.86602" fill="white"/>
<path d="M9.12988 1.6001L9.20421 1.82885L9.08983 1.86602" fill="white"/>
<path d="M9.35742 1.76611H9.11689V1.88638" fill="white"/>
<path d="M9.35742 1.76611L9.16283 1.90749L9.09214 1.8102" fill="white"/>
<path d="M8.90039 1.76611L9.09498 1.90749L9.16567 1.8102" fill="white"/>
<path d="M8.90039 1.76611H9.14092V1.88638" fill="white"/>
<path d="M9.26953 2.03564L9.1952 1.80689L9.08083 1.84405" fill="white"/>
<path d="M9.26953 2.03564L9.07494 1.89426L9.14563 1.79697" fill="white"/>
<path d="M8.9873 2.03516L9.1819 1.89378L9.11121 1.79648" fill="white"/>
<path d="M8.9873 2.03516L9.06163 1.8064L9.17601 1.84356" fill="white"/>
<path d="M5.28125 3.52344L5.20692 3.75219L5.3213 3.78936" fill="white"/>
<path d="M5.28125 3.52344L5.35558 3.75219L5.2412 3.78936" fill="white"/>
<path d="M5.51074 3.69043H5.27021V3.81069" fill="white"/>
<path d="M5.51074 3.69043L5.31615 3.83181L5.24546 3.73451" fill="white"/>
<path d="M5.05273 3.68994L5.24733 3.83132L5.31802 3.73402" fill="white"/>
<path d="M5.05273 3.68994H5.29326V3.81021" fill="white"/>
<path d="M5.42285 3.95947L5.34852 3.73072L5.23415 3.76788" fill="white"/>
<path d="M5.42285 3.95947L5.22826 3.81809L5.29895 3.7208" fill="white"/>
<path d="M5.13867 3.9585L5.33326 3.81712L5.26257 3.71982" fill="white"/>
<path d="M5.13867 3.9585L5.213 3.72974L5.32738 3.7669" fill="white"/>
<path d="M6.24316 3.52344L6.16884 3.75219L6.28321 3.78936" fill="white"/>
<path d="M6.24316 3.52344L6.31749 3.75219L6.20311 3.78936" fill="white"/>
<path d="M6.47266 3.68994H6.23213V3.81021" fill="white"/>
<path d="M6.47266 3.68994L6.27806 3.83132L6.20737 3.73402" fill="white"/>
<path d="M6.0166 3.68945L6.21119 3.83083L6.28188 3.73354" fill="white"/>
<path d="M6.0166 3.68945H6.25713V3.80972" fill="white"/>
<path d="M6.38477 3.95898L6.31044 3.73023L6.19606 3.76739" fill="white"/>
<path d="M6.38477 3.95898L6.19017 3.8176L6.26086 3.72031" fill="white"/>
<path d="M6.10156 3.9585L6.29615 3.81712L6.22547 3.71982" fill="white"/>
<path d="M6.10156 3.9585L6.17589 3.72974L6.29027 3.7669" fill="white"/>
<path d="M6.24316 2.5625L6.16884 2.79126L6.28321 2.82842" fill="white"/>
<path d="M6.24316 2.5625L6.31749 2.79126L6.20311 2.82842" fill="white"/>
<path d="M6.47266 2.72852H6.23213V2.84878" fill="white"/>
<path d="M6.47266 2.72852L6.27806 2.8699L6.20737 2.7726" fill="white"/>
<path d="M6.01562 2.72852L6.21022 2.8699L6.28091 2.7726" fill="white"/>
<path d="M6.01562 2.72852H6.25615V2.84878" fill="white"/>
<path d="M6.38574 2.99658L6.31141 2.76783L6.19704 2.80499" fill="white"/>
<path d="M6.38574 2.99658L6.19115 2.8552L6.26184 2.75791" fill="white"/>
<path d="M6.10352 2.99609L6.29811 2.85471L6.22742 2.75742" fill="white"/>
<path d="M6.10352 2.99609L6.17784 2.76734L6.29222 2.8045" fill="white"/>
</g>
<defs>
<clipPath id="clip0_1153_11547">
<rect width="16" height="16" rx="8" fill="white"/>
</clipPath>
</defs>
</svg>
